<svg width="51" height="58" viewBox="0 0 51 58" fill="none" xmlns="http://www.w3.org/2000/svg">
<path fill-rule="evenodd" clip-rule="evenodd" d="M45.9418 -3.33624e-05H5.02303C1.70642 -3.33624e-05 0.482422 1.22354 0.482422 4.54053V44.5652C0.482422 44.9406 0.497564 45.2892 0.530734 45.6123C0.606243 46.3363 0.620459 47.0379 1.29406 47.8367C1.35989 47.9149 2.0476 48.4265 2.0476 48.4265C2.41752 48.6079 2.67011 48.7414 3.08731 48.9093L23.2363 57.348C24.2823 57.8274 24.7196 58.0142 25.4794 57.9992V57.9993C25.4804 57.9993 25.4813 57.9993 25.4824 57.9993C25.4834 57.9993 25.4843 57.9993 25.4853 57.9993V57.9992C26.2451 58.0142 26.6825 57.8274 27.7286 57.348L47.8774 48.9093C48.2947 48.7414 48.5472 48.6079 48.9172 48.4265C48.9172 48.4265 49.6049 47.9149 49.6707 47.8367C50.3443 47.0379 50.3585 46.3363 50.434 45.6123C50.4671 45.2892 50.4824 44.9406 50.4824 44.5652V4.54053C50.4824 1.22354 49.2583 -3.33624e-05 45.9418 -3.33624e-05Z" fill="#2F2D2E"/>
<path d="M43.2004 40.2395L43.1911 40.3319L43.182 40.4333L43.1634 40.5257L43.1358 40.6179L43.1179 40.701L43.0901 40.7934L43.0532 40.8765L43.0162 40.9505L42.9798 41.0335L42.9337 41.1073L42.8875 41.1812L42.8326 41.2551L42.7864 41.3289L42.7316 41.3935L42.6669 41.4581L42.612 41.5135L42.5382 41.5782L42.4741 41.6336L42.4002 41.689L42.3268 41.7345L42.2535 41.7899L42.1704 41.8361L42.0878 41.873L42.0052 41.9192L41.9128 41.9561L41.8211 41.9931L41.7293 42.0207L41.6375 42.0485L41.5544 42.0761L41.4626 42.0946L41.38 42.1131L41.2974 42.1315L41.205 42.15L41.1131 42.1592L41.0306 42.1685L40.9382 42.1777L40.8373 42.187L40.7454 42.1962H40.6536H40.5525H40.451H40.3592L40.2673 42.187H40.1664L40.0745 42.1777L39.9822 42.1685L39.8811 42.1592L39.7893 42.1408L39.6975 42.1315L39.6051 42.1131L39.5133 42.0946L39.4215 42.0761L39.3297 42.0577L39.2374 42.0301L39.1548 42.0115L39.063 41.9838L38.9711 41.9561L38.8881 41.9192L38.7963 41.8915L38.7137 41.8639L38.6218 41.8269L38.5387 41.7899L38.4561 41.753L38.3735 41.7074L38.2905 41.6705L38.2079 41.6242L38.1345 41.5782L38.0514 41.532L37.978 41.4858L37.9042 41.4397L37.8308 41.3843L37.7575 41.3289L37.6836 41.2735L37.6102 41.2181L37.5456 41.1627L37.4723 41.0981L37.5277 41.0243L37.5917 40.9596L37.6472 40.8857L37.7113 40.8118L37.7668 40.7473L37.8216 40.6734L37.8863 40.5995L37.9411 40.5349L38.0058 40.4611L38.0607 40.3964L38.1253 40.3226L38.1802 40.2487L38.2356 40.1841L38.2997 40.1103L38.3551 40.0363L38.4191 39.9718L38.4746 39.8979L38.5479 39.9533L38.6305 40.0087L38.7044 40.0641L38.787 40.1195L38.8609 40.1657L38.9435 40.221L39.0167 40.2672L39.1 40.3041L39.1732 40.3503L39.2558 40.3873L39.339 40.4241L39.4215 40.4611L39.5042 40.4888L39.5872 40.5257L39.679 40.5534L39.7709 40.5811L39.8534 40.6088L39.9458 40.6273L40.0376 40.6457L40.1294 40.6642L40.2304 40.6734L40.3227 40.6919H40.4146L40.5156 40.701H40.6075H40.7177L40.8187 40.6919L40.9111 40.6734L40.9937 40.6549L41.0763 40.6365L41.1501 40.6088L41.2143 40.5719L41.2882 40.5165L41.343 40.4518L41.38 40.3779L41.4078 40.2949L41.4168 40.2025V40.1841L41.4078 40.0733L41.3708 39.9809L41.3245 39.9164L41.2605 39.861L41.1865 39.8056L41.1131 39.7687L41.0306 39.7317L40.9382 39.6948L40.828 39.6487L40.7638 39.6302L40.6906 39.6118L40.6075 39.5839L40.5248 39.5655L40.4331 39.5378L40.3407 39.5194L40.2397 39.4917L40.1478 39.4732L40.0468 39.4455L39.955 39.4271L39.8626 39.3994L39.7709 39.3809L39.679 39.3532L39.5959 39.3256L39.5042 39.307L39.4215 39.2793L39.339 39.2516L39.2558 39.2239L39.1548 39.187L39.063 39.15L38.9711 39.1131L38.8788 39.0762L38.7963 39.03L38.7044 38.9839L38.6305 38.9378L38.5479 38.8916L38.4746 38.8362L38.4007 38.7901L38.3366 38.7346L38.272 38.67L38.2079 38.6054L38.1524 38.5407L38.0976 38.4761L38.0514 38.4116L38.0058 38.3376L37.9596 38.2546L37.9226 38.1906L37.8949 38.1166L37.8678 38.0335L37.8401 37.9597L37.8216 37.8673L37.8031 37.7842L37.7939 37.692L37.7847 37.5996L37.7754 37.4982V37.3965V37.3781V37.2857L37.7847 37.1934L37.7939 37.1103L37.8031 37.018L37.8216 36.935L37.8401 36.8519L37.8678 36.7687L37.8863 36.6857L37.9226 36.6026L37.9596 36.5195L37.9965 36.4365L38.0422 36.3533L38.0883 36.2703L38.1432 36.1963L38.1987 36.1225L38.2628 36.0486L38.3274 35.9841L38.3915 35.9101L38.4654 35.8455L38.5295 35.7993L38.6033 35.7439L38.6768 35.6885L38.75 35.6424L38.8332 35.5963L38.9158 35.5593L38.9983 35.5132L39.0814 35.4763L39.1732 35.4485L39.265 35.4116L39.3481 35.3839L39.4215 35.3654L39.5042 35.347L39.5872 35.3285L39.679 35.3101L39.7616 35.2916L39.8534 35.2824L39.9458 35.2731L40.0376 35.2639L40.1294 35.2547H40.2212H40.3227H40.4239H40.5248L40.6259 35.2639L40.727 35.2731H40.8187L40.9203 35.2824L41.0121 35.3008L41.1131 35.3101L41.205 35.3285L41.2882 35.347L41.38 35.3654L41.4717 35.3839L41.5544 35.4024L41.6467 35.4301L41.7293 35.4578L41.8119 35.4763L41.9042 35.5132L41.9868 35.5409L42.0693 35.5777L42.1519 35.6147L42.2442 35.6517L42.3268 35.6978L42.4002 35.7348L42.4833 35.7809L42.5659 35.827L42.6393 35.8733L42.7223 35.9287L42.7958 35.9747L42.8696 36.0302L42.943 36.0856L43.0162 36.1409L42.9614 36.2149L42.9153 36.2887L42.8604 36.3625L42.8049 36.4365L42.7501 36.5195L42.7039 36.5933L42.6485 36.6672L42.5935 36.7411L42.5475 36.8149L42.4925 36.8888L42.4372 36.9627L42.3909 37.0365L42.3361 37.1196L42.2806 37.1934L42.2258 37.2673L42.1796 37.3411L42.1247 37.4149L42.0509 37.3596L41.9684 37.3134L41.8949 37.2673L41.8211 37.2119L41.7385 37.175L41.6646 37.1288L41.5821 37.0918L41.5087 37.0549L41.4256 37.018L41.3522 36.9811L41.2697 36.9534L41.1959 36.9164L41.0947 36.8888L41.0029 36.861L40.9111 36.8334L40.8187 36.8149L40.727 36.7965L40.6352 36.7779L40.5434 36.7687L40.451 36.7595L40.3685 36.7502H40.2766H40.1664L40.0653 36.7687L39.9729 36.7872L39.8904 36.8056L39.817 36.8426L39.7523 36.8795L39.6697 36.9534L39.6143 37.0365L39.578 37.1196L39.5687 37.2119V37.2304L39.578 37.3504L39.6236 37.4519L39.6606 37.5073L39.7246 37.572L39.8078 37.6181L39.8811 37.6643L39.9729 37.7012L40.0745 37.7382L40.1848 37.7751L40.2581 37.7935L40.3315 37.8212L40.4146 37.8396L40.4971 37.8673L40.5889 37.8859L40.6906 37.9136L40.7916 37.9412L40.8927 37.969L40.9937 37.9874L41.0854 38.0151L41.1865 38.0428L41.2789 38.0612L41.3708 38.0889L41.4626 38.1166L41.5451 38.1443L41.6375 38.172L41.7201 38.1997L41.8026 38.2274L41.9042 38.2638L41.996 38.31L42.0878 38.3469L42.1796 38.393L42.2628 38.4393L42.3454 38.4854L42.4186 38.5315L42.4925 38.5869L42.5659 38.6331L42.6393 38.6977L42.7131 38.7623L42.7772 38.8362L42.8418 38.9008L42.8967 38.9747L42.9521 39.0577L42.9978 39.1316L43.044 39.2148L43.0809 39.2886L43.1086 39.3716L43.1358 39.4547L43.1542 39.5378L43.1727 39.6302L43.1911 39.7226L43.2004 39.8148L43.2097 39.9164V40.0179V40.0363V40.138L43.2004 40.2395ZM36.7524 42.0855H36.6601H36.5683H36.4765H36.3847H36.2923H36.2005H36.1088H36.0169H35.9153H35.8235H35.7317H35.64H35.5475H35.4558H35.3639H35.2721H35.1797H35.0879H34.9961H34.9043H34.8125H34.7202H34.6284H34.5366H34.4447H34.3523H34.2605H34.1687H34.0677H33.9754H33.8835H33.7917H33.6999H33.6076H33.5157H33.4239H33.3321H33.2398H33.148H33.0562H32.9643H32.8719H32.7802H32.6883H32.5965H32.5042H32.4124H32.3113H32.2195H32.1277H32.0353H31.9435H31.8517H31.76H31.6677H31.5758H31.484V41.9931V41.9007V41.8085V41.7166V41.6242V41.532V41.4397V41.3474V41.2551V41.1627V41.0704V40.9781V40.8857V40.7934V40.701V40.6088V40.5165V40.4241V40.341V40.2487V40.1564V40.0641V39.9718V39.8794V39.7871V39.6948V39.6024V39.5101V39.4178V39.3256V39.2332V39.1408V39.0486V38.9562V38.8638V38.7716V38.6792V38.5869V38.4947V38.4023V38.31V38.2182V38.1259V38.0335V37.9412V37.8489V37.7566V37.6643V37.572V37.4796V37.3872V37.295V37.2026V37.1103V37.0272V36.935V36.8426V36.7502V36.658V36.5656V36.4733V36.381V36.2887V36.1963V36.104V36.0117V35.9193V35.827V35.7348V35.6424V35.5501V35.4578V35.3654H31.5758H31.6677H31.76H31.8517H31.9435H32.0353H32.1277H32.2195H32.3113H32.4032H32.4955H32.5874H32.6791H32.7709H32.854H32.9459H33.0376H33.1295H33.2218H33.3136H33.4054H33.4973H33.5896H33.6814H33.7732H33.865H33.9574H34.0492H34.141H34.2328H34.3252H34.4171H34.5088H34.6006H34.6924H34.7848H34.8766H34.9684H35.0602H35.1526H35.2444H35.3362H35.428H35.5112H35.603H35.6948H35.7866H35.8789H35.9707H36.0625H36.1543H36.2467H36.3385H36.4303H36.5222H36.6145H36.7063H36.7981V35.4578V35.5409V35.6331V35.7255V35.8178V35.9009V35.9932V36.0856V36.1686V36.261V36.3533V36.4365V36.5287V36.621V36.7134V36.7965V36.8888H36.7063H36.6145H36.5222H36.4303H36.3385H36.2467H36.1636H36.0718H35.98H35.8881H35.7958H35.704H35.6121H35.5204H35.428H35.3362H35.2444H35.1526H35.0602H34.9777H34.8858H34.794H34.7016H34.6099H34.518H34.4263H34.3339H34.2421H34.1503H34.0585H33.9661H33.8742H33.7917H33.6999H33.6076H33.5157H33.4239H33.3321H33.2398V36.9811V37.0734V37.1656V37.258V37.3504V37.4335V37.5257V37.6181V37.7104V37.8028V37.895V37.9874H33.3321H33.4239H33.5157H33.6076H33.6999H33.7917H33.8835H33.9754H34.0585H34.1503H34.2421H34.3339H34.4263H34.518H34.6099H34.7016H34.794H34.8858H34.9777H35.0695H35.1618H35.2536H35.3454H35.4373H35.5296H35.6214H35.704H35.7958H35.8881H35.98H36.0718H36.1636H36.2559H36.3478H36.4395V38.0797V38.1628V38.2546V38.3469V38.43V38.5223V38.6146V38.6977V38.7901V38.8824V38.9747V39.0577V39.15V39.2424V39.3256V39.4178H36.3478H36.2559H36.1636H36.0718H35.98H35.8881H35.7958H35.704H35.6214H35.5296H35.4373H35.3454H35.2536H35.1618H35.0695H34.9777H34.8858H34.794H34.7016H34.6099H34.518H34.4263H34.3339H34.2421H34.1503H34.0585H33.9754H33.8835H33.7917H33.6999H33.6076H33.5157H33.4239H33.3321H33.2398V39.5101V39.6118V39.704V39.7964V39.8979V39.9903V40.0826V40.1841V40.2764V40.3687V40.4703V40.5625H33.3321H33.4239H33.5157H33.6076H33.6999H33.7917H33.8835H33.9754H34.0677H34.1687H34.2605H34.3523H34.4447H34.5366H34.6284H34.7202H34.8125H34.9043H34.9961H35.0879H35.1797H35.2721H35.3639H35.4558H35.5475H35.64H35.7317H35.8235H35.9153H36.0169H36.1088H36.2005H36.2923H36.3847H36.4765H36.5683H36.6601H36.7524H36.8443V40.6549V40.738V40.8304V40.9227V41.015V41.0981V41.1904V41.2827V41.3659V41.4581V41.5504V41.6336V41.7254V41.8176V41.9099V41.9931V42.0855H36.7524ZM30.0345 42.0855H29.9427H29.8508H29.7494H29.6576H29.5657H29.4739H29.3815H29.2897H29.1887H29.0969H29.005H28.9127H28.8209H28.7291H28.6281H28.5357H28.4439H28.352V41.9931V41.9007V41.8085V41.7161V41.6232V41.5309V41.4386V41.3462V41.2539V41.1617V41.0693V40.9765V40.8841V40.7918V40.6995V40.6071V40.5142V40.4219V40.3296V40.2373V40.145V40.0527V39.9598V39.8675V39.7752V39.6828V39.5905V39.4982V39.4053V39.3129V39.2206V39.1284V39.0361V38.9437V38.8509V38.7586V38.6662V38.574V38.4816V38.3887V38.2964V38.2041V38.1117L28.3059 38.1855L28.251 38.2692L28.2048 38.3431L28.15 38.417L28.1038 38.5L28.0483 38.574L28.0028 38.6478L27.9565 38.7314L27.9017 38.8052L27.8555 38.8791L27.8001 38.953L27.7545 39.0366L27.6991 39.1105L27.6535 39.1843L27.6072 39.2674L27.5518 39.3417L27.5061 39.4157L27.4507 39.4987L27.4052 39.5726L27.3498 39.6465L27.3041 39.7301L27.2579 39.804L27.2026 39.8778L27.1569 39.9609L27.1015 40.0353L27.0559 40.1091L27.0005 40.1831L26.9542 40.2661L26.9086 40.3404L26.8533 40.4144L26.8076 40.4975L26.7522 40.5713L26.706 40.6451L26.6511 40.7288L26.605 40.8027H26.5685L26.5132 40.7196L26.467 40.6451L26.412 40.562L26.3659 40.4882L26.311 40.4052L26.2648 40.3307L26.21 40.2476L26.1638 40.1737L26.1084 40.0907L26.0627 40.0169L26.0073 39.9331L25.9618 39.8593L25.9064 39.7762L25.8601 39.7024L25.8053 39.6188L25.759 39.5449L25.7042 39.4618L25.6488 39.388L25.6027 39.3044L25.5478 39.2305L25.5016 39.1474L25.4467 39.0736L25.4006 38.9899L25.3457 38.916L25.2995 38.8329L25.2441 38.7591L25.1984 38.676L25.143 38.6015L25.0974 38.5186L25.042 38.4446L24.9958 38.3615L24.941 38.2878L24.8947 38.2041L24.8399 38.1302V38.2225V38.3149V38.4072V38.5V38.5924V38.6847V38.777V38.8694V38.9622V39.0545V39.1376V39.2299V39.3223V39.4146V39.5074V39.5998V39.6921V39.7843V39.8767V39.9691V40.0619V40.1542V40.2466V40.3389V40.4312V40.5235V40.6164V40.7087V40.801V40.8933V40.9857V41.0785V41.1617V41.2539V41.3462V41.4386V41.5309V41.6232V41.7161V41.8085V41.9007V41.9931V42.0855H24.7481H24.6558H24.5639H24.4721H24.3803H24.288H24.1961H24.1043H24.0125H23.9202H23.8284H23.7365H23.6447H23.5524H23.4606H23.3687H23.2768H23.1845H23.0928V41.9931V41.9007V41.8085V41.7166V41.6242V41.532V41.4397V41.3474V41.2551V41.1627V41.0704V40.9781V40.8857V40.7934V40.701V40.6088V40.5165V40.4241V40.341V40.2487V40.1564V40.0641V39.9718V39.8794V39.7871V39.6948V39.6024V39.5101V39.4178V39.3256V39.2332V39.1408V39.0486V38.9562V38.8638V38.7716V38.6792V38.5869V38.4947V38.4023V38.31V38.2182V38.1259V38.0335V37.9412V37.8489V37.7566V37.6643V37.572V37.4796V37.3872V37.295V37.2026V37.1103V37.0272V36.935V36.8426V36.7502V36.658V36.5656V36.4733V36.381V36.2887V36.1963V36.104V36.0117V35.9193V35.827V35.7348V35.6424V35.5501V35.4578V35.3654H23.1845H23.2768H23.3596H23.4512H23.5431H23.6354H23.718H23.8098H23.9022H23.994H24.0766H24.1684H24.2608H24.3526H24.4351H24.5269H24.6193H24.7112H24.7937H24.8855H24.9779L25.0235 35.4393L25.0697 35.5223L25.1245 35.5957L25.1707 35.6788L25.2169 35.7526L25.2625 35.8358L25.3087 35.909L25.3637 35.9922L25.4097 36.0661L25.456 36.1399L25.5016 36.2224L25.5478 36.2963L25.6027 36.3793L25.6488 36.4532L25.695 36.5357L25.7406 36.6096L25.796 36.6834L25.8423 36.7661L25.8878 36.8398L25.934 36.9229L25.9797 36.9969L26.0351 37.0793L26.0813 37.1533L26.1268 37.2363L26.1731 37.3096L26.2187 37.3834L26.2741 37.4665L26.3203 37.5405L26.3659 37.6236L26.412 37.6969L26.4577 37.78L26.5132 37.8538L26.5594 37.9363L26.605 38.0103L26.6511 37.9363L26.6973 37.8538L26.7522 37.78L26.7982 37.6969L26.844 37.6236L26.8901 37.5405L26.945 37.4665L26.9912 37.3834L27.0374 37.3096L27.083 37.2363L27.1384 37.1533L27.184 37.0793L27.2303 36.9969L27.2763 36.9229L27.3312 36.8398L27.3774 36.7661L27.4236 36.6834L27.4692 36.6096L27.5155 36.5357L27.5703 36.4532L27.6165 36.3793L27.6626 36.2963L27.7084 36.2224L27.7637 36.1399L27.8094 36.0661L27.8555 35.9922L27.9017 35.909L27.9565 35.8358L28.0028 35.7526L28.0483 35.6788L28.0946 35.5957L28.15 35.5223L28.1956 35.4393L28.2418 35.3654H28.3335H28.4254H28.5085H28.6004H28.6921H28.7839H28.8671H28.9589H29.0506H29.1425H29.2256H29.3174H29.4092H29.5011H29.5841H29.676H29.7678H29.8596H29.9427H30.0345H30.1263V35.4578V35.5501V35.6424V35.7348V35.827V35.9193V36.0117V36.104V36.1963V36.2887V36.381V36.4733V36.5656V36.658V36.7502V36.8426V36.935V37.0272V37.1103V37.2026V37.295V37.3872V37.4796V37.572V37.6643V37.7566V37.8489V37.9412V38.0335V38.1259V38.2182V38.31V38.4023V38.4947V38.5869V38.6792V38.7716V38.8638V38.9562V39.0486V39.1408V39.2332V39.3256V39.4178V39.5101V39.6024V39.6948V39.7871V39.8794V39.9718V40.0641V40.1564V40.2487V40.341V40.4241V40.5165V40.6088V40.701V40.7934V40.8857V40.9781V41.0704V41.1627V41.2551V41.3474V41.4397V41.532V41.6242V41.7166V41.8085V41.9007V41.9931V42.0855H30.0345ZM19.3666 39.3163L19.3389 39.2327L19.3025 39.1403L19.2655 39.0572L19.2378 38.9736L19.2014 38.8905L19.1646 38.7981L19.1367 38.7145L19.0998 38.6314L19.0635 38.5484L19.0357 38.4648L18.9987 38.3724L18.9716 38.2893L18.9346 38.2057L18.8977 38.1226L18.87 38.0395L18.8336 37.9467L18.7967 37.8635L18.769 37.7805L18.732 37.6969L18.6956 37.6045L18.6679 37.5209L18.631 37.4378L18.5946 37.5209L18.567 37.6045L18.53 37.6969L18.493 37.7805L18.4658 37.8635L18.4289 37.9467L18.392 38.0395L18.3556 38.1226L18.3278 38.2057L18.2909 38.2893L18.2539 38.3724L18.2267 38.4648L18.1899 38.5484L18.1529 38.6314L18.1253 38.7145L18.0888 38.7981L18.0518 38.8905L18.0149 38.9736L17.9878 39.0572L17.9509 39.1403L17.9139 39.2327L17.8862 39.3163L17.8498 39.3994H17.9416H18.0334H18.1253H18.2176H18.3093H18.4011H18.493H18.5854H18.6679H18.7597H18.8521H18.9439H19.0357H19.1276H19.2194H19.3117H19.4034L19.3666 39.3163ZM22.254 42.0855H22.1617H22.079H21.9873H21.8949H21.8031H21.7113H21.6287H21.5363H21.4445H21.3528H21.2609H21.1686H21.086H20.9942H20.9023H20.81H20.7182H20.6356H20.5438H20.4515L20.415 42.0023L20.3873 41.9192L20.3504 41.8361L20.3135 41.7438L20.2863 41.6612L20.2494 41.5782L20.2124 41.4951L20.1852 41.412L20.1483 41.3289L20.1114 41.2458L20.0837 41.1627L20.0473 41.0704L20.0103 40.9873L19.9826 40.9042L19.9456 40.8211H19.8538H19.762H19.6703H19.5785H19.4953H19.4034H19.3117H19.2194H19.1276H19.0357H18.9439H18.8521H18.7597H18.6679H18.5854H18.493H18.4011H18.3093H18.2176H18.1253H18.0334H17.9416H17.8498H17.758H17.6748H17.5831H17.4912H17.3988H17.307L17.2707 40.9042L17.243 40.9873L17.206 41.0704L17.1691 41.1627L17.1419 41.2458L17.105 41.3289L17.068 41.412L17.0403 41.4951L17.004 41.5782L16.967 41.6612L16.9393 41.7438L16.9028 41.8361L16.8659 41.9192L16.8382 42.0023L16.8012 42.0855H16.7094H16.6177H16.5259H16.4335H16.3417H16.2406H16.1489H16.057H15.9647H15.8729H15.7811H15.6892H15.5968H15.5051H15.4133H15.3123H15.2199H15.1281H15.0362H14.9444L14.9808 42.0023L15.0178 41.9192L15.0546 41.8361L15.0911 41.7438L15.1188 41.6612L15.1558 41.5782L15.1927 41.4951L15.229 41.412L15.266 41.3289L15.303 41.2365L15.3394 41.1534L15.3764 41.0704L15.404 40.9873L15.4409 40.9042L15.4773 40.8211L15.5143 40.7288L15.5512 40.6457L15.5876 40.5625L15.6246 40.4795L15.6615 40.3964L15.6892 40.3133L15.7256 40.221L15.7626 40.138L15.7995 40.0549L15.8359 39.9718L15.8729 39.8887L15.9099 39.8056L15.9462 39.7132L15.9739 39.6302L16.0109 39.5471L16.0478 39.464L16.0843 39.3809L16.1211 39.2978L16.158 39.2055L16.1945 39.1224L16.2314 39.0393L16.2591 38.9562L16.2961 38.8732L16.3324 38.7901L16.3694 38.6977L16.4064 38.6146L16.4427 38.5315L16.4796 38.4484L16.5166 38.3654L16.5443 38.2822L16.5808 38.1997L16.6177 38.1074L16.6545 38.0244L16.691 37.9412L16.7279 37.8581L16.7649 37.7751L16.8012 37.692L16.8289 37.5996L16.8659 37.5166L16.9028 37.4335L16.9393 37.3504L16.9763 37.2673L17.0131 37.1842L17.0496 37.0918L17.0865 37.0088L17.1142 36.9257L17.1511 36.8426L17.1875 36.7595L17.2244 36.6764L17.2614 36.5841L17.2978 36.501L17.3347 36.4179L17.3717 36.3348L17.3988 36.2518L17.4358 36.1686L17.4728 36.0763L17.5098 35.9932L17.5461 35.9101L17.5831 35.827L17.62 35.7439L17.6563 35.6609L17.6842 35.5686L17.721 35.4855L17.758 35.4024L17.7944 35.3193H17.8862H17.9693H18.0611H18.1529H18.2453H18.3278H18.4196H18.5115H18.6039H18.6865H18.7782H18.87H18.9623H19.045H19.1367H19.2285H19.3209H19.4034H19.4953L19.5322 35.4024L19.5692 35.4855L19.6057 35.5686L19.6425 35.6609L19.6703 35.7439L19.7066 35.827L19.7436 35.9101L19.7805 35.9932L19.8175 36.0763L19.8538 36.1686L19.8908 36.2518L19.9278 36.3348L19.9549 36.4179L19.9919 36.501L20.0288 36.5841L20.0658 36.6764L20.1022 36.7595L20.1391 36.8426L20.176 36.9257L20.2124 37.0088L20.2401 37.0918L20.277 37.1842L20.3135 37.2673L20.3504 37.3504L20.3873 37.4335L20.4243 37.5166L20.4607 37.5996L20.4976 37.692L20.5254 37.7751L20.5617 37.8581L20.5986 37.9412L20.6356 38.0244L20.6726 38.1074L20.7089 38.1997L20.7459 38.2822L20.7828 38.3654L20.81 38.4484L20.8469 38.5315L20.8838 38.6146L20.9203 38.6977L20.9572 38.7901L20.9942 38.8732L21.0312 38.9562L21.0675 39.0393L21.0952 39.1224L21.1321 39.2055L21.1686 39.2978L21.2055 39.3809L21.2424 39.464L21.2793 39.5471L21.3158 39.6302L21.3528 39.7132L21.3804 39.8056L21.4168 39.8887L21.4537 39.9718L21.4907 40.0549L21.5271 40.138L21.564 40.221L21.601 40.3133L21.638 40.3964L21.6651 40.4795L21.7021 40.5625L21.7391 40.6457L21.7754 40.7288L21.8123 40.8211L21.8493 40.9042L21.8862 40.9873L21.9225 41.0704L21.9503 41.1534L21.9873 41.2365L22.0237 41.3289L22.0606 41.412L22.0974 41.4951L22.1339 41.5782L22.1708 41.6612L22.2078 41.7438L22.2356 41.8361L22.2718 41.9192L22.3088 42.0023L22.3457 42.0855H22.254ZM14.1991 41.2273L14.1253 41.2827L14.0611 41.3289L13.9872 41.3843L13.9139 41.4304L13.8405 41.4858L13.7667 41.532L13.6933 41.5782L13.6102 41.6242L13.5276 41.6705L13.445 41.7166L13.3619 41.753L13.2793 41.7992L13.1875 41.8361L13.105 41.873L13.0126 41.9099L12.9301 41.9469L12.8474 41.9746L12.7644 42.0023L12.6817 42.0301L12.59 42.0577L12.5074 42.0855L12.415 42.1039L12.3324 42.1223L12.2406 42.1408L12.1483 42.1592L12.0565 42.1685L11.9554 42.1777L11.8636 42.187L11.7626 42.1962L11.6702 42.2054L11.5692 42.2146H11.4681H11.367H11.266H11.1736L11.0818 42.2054L10.9808 42.1962L10.889 42.187L10.7972 42.1777L10.7048 42.1685L10.613 42.15L10.5211 42.1315L10.4386 42.1131L10.3463 42.0946L10.2637 42.0669L10.1719 42.0485L10.0888 42.0207L10.0062 41.9838L9.92357 41.9561L9.83189 41.9192L9.74875 41.8823L9.66614 41.8454L9.58362 41.8085L9.50039 41.7623L9.42715 41.7166L9.34453 41.6705L9.27067 41.6242L9.19732 41.5782L9.12346 41.5227L9.05012 41.4674L8.97667 41.412L8.91208 41.3566L8.84801 41.3012L8.78331 41.2365L8.71924 41.1812L8.65455 41.1166L8.59047 41.0519L8.53505 40.9873L8.48015 40.9135L8.42473 40.8488L8.37858 40.775L8.32367 40.701L8.27762 40.6273L8.23189 40.5534L8.18574 40.4703L8.13959 40.3964L8.10322 40.3133L8.06624 40.2302L8.02936 40.1471L7.99289 40.0641L7.96519 39.9903L7.9282 39.9071L7.90976 39.824L7.88257 39.741L7.86413 39.6487L7.83642 39.5655L7.81798 39.4732L7.80871 39.3901L7.79017 39.2978L7.7811 39.2148L7.77172 39.1224L7.76307 39.03L7.75391 38.9378V38.8362V38.7439V38.7254V38.6331L7.76307 38.5315V38.4393L7.77172 38.3469L7.7811 38.2454L7.79954 38.1536L7.80871 38.0612L7.82715 37.9781L7.85486 37.8859L7.8734 37.7935L7.90049 37.7104L7.9282 37.6181L7.95591 37.535L7.99289 37.4426L8.02936 37.3596L8.06624 37.2765L8.10322 37.1934L8.13959 37.1103L8.18574 37.0272L8.23189 36.9534L8.27762 36.8795L8.32367 36.8056L8.36992 36.7318L8.42473 36.658L8.48015 36.5841L8.53505 36.5103L8.59047 36.4455L8.65455 36.381L8.70997 36.3163L8.77415 36.2518L8.83873 36.187L8.90281 36.1318L8.97667 36.0671L9.04085 36.0117L9.11419 35.9563L9.18805 35.9101L9.2614 35.8547L9.33536 35.8086L9.4086 35.7625L9.49122 35.7162L9.57435 35.6701L9.65687 35.624L9.73948 35.587L9.82251 35.5501L9.9144 35.5039L9.98774 35.4763L10.0795 35.4485L10.1628 35.4116L10.2453 35.3931L10.3278 35.3654L10.4201 35.347L10.5027 35.3193L10.5945 35.3008L10.6864 35.2916L10.7787 35.2731L10.8706 35.2639L10.9622 35.2547L11.0541 35.2454L11.1465 35.2362H11.2476H11.3394H11.4403H11.5414L11.6431 35.2454L11.7441 35.2547H11.8359L11.9277 35.2639L12.0287 35.2824L12.1119 35.2916L12.2037 35.3101L12.2955 35.3285L12.3786 35.347L12.4611 35.3654L12.5438 35.3839L12.6269 35.4116L12.7095 35.4301L12.7828 35.4578L12.8659 35.4855L12.9485 35.5223L13.0311 35.5593L13.1142 35.5963L13.1968 35.6424L13.2793 35.6794L13.3533 35.7255L13.4358 35.7716L13.5091 35.8178L13.5923 35.864L13.6656 35.9193L13.739 35.9655L13.8128 36.0209L13.8862 36.0763L13.96 36.1409L14.0334 36.1963L13.978 36.2703L13.9139 36.3348L13.8585 36.4087L13.7944 36.4825L13.739 36.5564L13.6841 36.621L13.6194 36.6948L13.5646 36.7687L13.5091 36.8334L13.445 36.9073L13.3896 36.9811L13.3255 37.0549L13.27 37.1196L13.2152 37.1934L13.1507 37.2673L13.0956 37.3411L13.0311 37.4058L12.9762 37.4796L12.9023 37.4242L12.8289 37.3596L12.7551 37.3134L12.6817 37.258L12.6084 37.2119L12.5345 37.1656L12.4611 37.1196L12.3786 37.0734L12.3047 37.0365L12.2314 36.9995L12.1575 36.9718L12.0749 36.9441L11.9924 36.9164L11.9092 36.898L11.8175 36.8795L11.7257 36.861L11.6338 36.8519L11.5327 36.8426L11.4312 36.8334H11.3301H11.2383L11.1465 36.8426L11.0634 36.8519L10.9716 36.8703L10.889 36.8888L10.8059 36.9164L10.7234 36.9441L10.6407 36.9811L10.5581 37.018L10.4843 37.0641L10.411 37.1103L10.3371 37.1566L10.273 37.2119L10.2083 37.2673L10.1442 37.3227L10.0888 37.3872L10.0247 37.4519L9.9693 37.5257L9.92357 37.5904L9.87742 37.6643L9.83189 37.7474L9.78563 37.8212L9.74875 37.9043L9.72104 37.9874L9.68457 38.0705L9.65687 38.1628L9.63843 38.2546L9.61999 38.3376L9.60145 38.4393L9.59228 38.5315L9.58362 38.6238V38.7254V38.7439V38.8362L9.59228 38.9285L9.60145 39.0116L9.61072 39.104L9.62915 39.187L9.6477 39.2702L9.66614 39.3532L9.69385 39.4363L9.72104 39.5101L9.75802 39.6024L9.7949 39.6856L9.84054 39.7687L9.88669 39.8425L9.93284 39.9164L9.98774 39.9903L10.0432 40.0549L10.1072 40.1195L10.1628 40.1841L10.2267 40.2395L10.3007 40.2949L10.374 40.3503L10.4473 40.3964L10.5211 40.4426L10.6039 40.4795L10.6864 40.5165L10.7694 40.5534L10.8613 40.5811L10.9531 40.6088L11.0455 40.6273L11.1373 40.6457L11.2291 40.6549L11.3301 40.6642H11.4312H11.5414L11.6431 40.6549L11.7441 40.6457L11.8359 40.6365L11.9277 40.6179L12.0201 40.5995L12.1119 40.5719L12.1944 40.5534L12.2771 40.5165L12.351 40.4795L12.4335 40.4426L12.4981 40.4057L12.5715 40.3595V40.2672V40.1749V40.0826V39.9903V39.8887V39.7964V39.704V39.6118V39.5194H12.4796H12.3966H12.3047H12.2129H12.1211H12.038H11.9461H11.8543H11.7626H11.6795H11.5876H11.4959H11.404H11.3209H11.2291V39.4271V39.344V39.2516V39.1594V39.067V38.9839V38.8916V38.7993V38.707V38.6238V38.5315V38.4393V38.3469V38.2638V38.172H11.3209H11.4132H11.5051H11.5968H11.6887H11.7805H11.8729H11.9647H12.0565H12.1483H12.2406H12.3324H12.4242H12.516H12.6084H12.7003H12.7921H12.8839H12.9762H13.068H13.1598H13.2516H13.3439H13.4358H13.5276H13.6194H13.7118H13.8036H13.8954H13.9872H14.0795H14.1713H14.2632V38.2638V38.3561V38.4484V38.5315V38.6238V38.7162V38.8084V38.9008V38.9932V39.0762V39.1685V39.2609V39.3532V39.4455V39.5378V39.6302V39.7132V39.8056V39.8979V39.9903V40.0826V40.1749V40.2672V40.3503V40.4426V40.5349V40.6273V40.7196V40.8118V40.8951V40.9873V41.0796V41.172L14.1991 41.2273Z" fill="white"/>
<path d="M11.2433 20.1606H15.2281V17.0793H11.2433V10.7889H15.3867V7.70758H7.85938V29.9456H15.4498V26.8642H11.2433V20.1606Z" fill="white"/>
<path d="M39.7854 20.8281V25.8477C39.7854 26.7373 39.3741 27.15 38.5207 27.15H37.8877C37.0023 27.15 36.591 26.7373 36.591 25.8477V11.8055C36.591 10.916 37.0023 10.5033 37.8877 10.5033H38.4571C39.3111 10.5033 39.7224 10.916 39.7224 11.8055V16.1582H43.0428V11.6149C43.0428 8.8513 41.7145 7.51693 38.9635 7.51693H37.3185C34.5674 7.51693 33.207 8.88281 33.207 11.6469V26.0062C33.207 28.7704 34.5674 30.1362 37.3185 30.1362H38.9949C41.7466 30.1362 43.1063 28.7704 43.1063 26.0062V20.8281H39.7854Z" fill="white"/>
<path d="M28.0332 29.9456H31.4176V7.70747H28.0332V29.9456Z" fill="white"/>
<path d="M23.1225 17.5875C23.1225 18.4771 22.7118 18.8904 21.8578 18.8904H20.466V10.6938H21.8578C22.7118 10.6938 23.1225 11.1066 23.1225 11.9961V17.5875ZM22.3951 7.70748H17.082V29.9456H20.466V21.8761H22.3951C25.1467 21.8761 26.5065 20.5103 26.5065 17.7467V11.8375C26.5065 9.07336 25.1467 7.70748 22.3951 7.70748Z" fill="white"/>
<path fill-rule="evenodd" clip-rule="evenodd" d="M15.8418 50.0534H35.2138L25.326 53.313L15.8418 50.0534Z" fill="white"/>
</svg>
