<svg width="279" height="70" viewBox="0 0 279 70" fill="none" xmlns="http://www.w3.org/2000/svg">
<g clip-path="url(#clip0_566_55)">
<path d="M255.933 64.9027C257.015 66.0225 258.697 66.9557 260.803 66.9557C262.591 66.9557 263.473 66.1158 263.473 65.241C263.473 64.0978 262.144 63.7129 260.367 63.3046C257.862 62.7331 254.639 62.0448 254.639 58.6504C254.639 56.1192 256.85 54.0662 260.461 54.0662C262.896 54.0662 264.92 54.801 266.437 56.1891L264.626 58.5571C263.379 57.4139 261.732 56.889 260.238 56.889C258.744 56.889 257.979 57.5306 257.979 58.4404C257.979 59.4669 259.262 59.7819 261.038 60.2018C263.567 60.7734 266.79 61.5199 266.79 64.9027C266.79 67.6789 264.79 69.7785 260.65 69.7785C257.709 69.7785 255.591 68.7987 254.145 67.3639L255.933 64.9027Z" fill="white"/>
<path d="M241.793 54.2993H252.65V57.0755H245.063V60.3766H251.533L250.251 63.1528H245.063V66.7106H252.65V69.5101H241.793V54.2993Z" fill="white"/>
<path d="M235.465 58.5686L231.136 69.5101H229.712L225.383 58.5686V69.5101H222.113V54.2993H226.689L230.418 63.7827L234.147 54.2993H238.746V69.5101H235.453V58.5686H235.465Z" fill="white"/>
<path d="M216.172 66.8856H209.314L208.35 69.5101H204.762L210.69 54.2993H214.784L220.689 69.5101H217.125L216.172 66.8856ZM210.196 64.086H215.278L212.749 57.1105L210.196 64.086Z" fill="white"/>
<path d="M197.433 54.0544C200.609 54.0544 202.609 55.5825 203.785 57.3789L201.068 58.837C200.35 57.7638 199.045 56.924 197.433 56.924C194.645 56.924 192.622 59.0469 192.622 61.9165C192.622 64.786 194.645 66.909 197.433 66.909C198.833 66.909 200.08 66.3374 200.739 65.7425V63.8995H196.645L197.774 61.1233L203.962 61.1116V66.9206C202.397 68.6587 200.209 69.7902 197.433 69.7902C192.951 69.7902 189.27 66.6873 189.27 61.9048C189.27 57.1106 192.951 54.0544 197.433 54.0544Z" fill="white"/>
<path d="M173.684 57.5303C173.684 57.5303 175.013 53.576 176.778 52.2695C176.778 52.2695 178.554 54.0192 179.871 57.5303C179.871 57.5303 183.412 57.9619 185.624 59.28C185.624 59.28 184.294 61.9163 182.083 63.666C182.083 63.666 182.671 65.334 182.53 69.8016C182.53 69.8016 179.436 69.37 176.778 67.6086C176.778 67.6086 174.119 69.37 171.025 69.8016C171.025 69.8016 170.578 67.1654 171.461 63.666C171.461 63.666 168.367 61.0414 167.92 59.28C167.932 59.28 170.143 57.9736 173.684 57.5303Z" fill="white"/>
<path d="M143.371 60.2949L12.7404 62.068L10.623 62.6745L142.983 64.1443L145.853 63.1994L146.335 62.4179L146.1 61.4731L143.371 60.2949Z" fill="white"/>
<path d="M160.591 66.2207L126.077 66.7806L124.713 67.4688L125.713 68.3204L160.214 68.6936L162.014 67.5038L160.591 66.2207Z" fill="white"/>
<path d="M120.103 66.6289L59.6166 67.2588L58.2285 67.9937L102.552 68.4136L119.644 68.5419L120.797 67.7837L120.503 67.0838L120.103 66.6289Z" fill="white"/>
<path d="M167.896 62.418C167.931 62.383 165.367 59.8867 165.367 59.8867L154.697 60.2367L150.839 61.0182L148.486 62.313L149.874 63.4678L153.697 64.4593L165.708 64.5876" fill="white"/>
<path d="M64.2617 56.469L38.6767 56.574L37.9238 56.9006L38.2061 57.2739L62.7677 57.3788L64.2617 56.469Z" fill="white"/>
<path d="M65.8984 57.3671L105.046 57.7987L111.94 57.3437L112.14 56.9238L105.246 56.1306L67.5335 56.4922L65.8984 57.3671Z" fill="white"/>
<path d="M163.59 55.699L133.465 55.9906L115.432 56.6671L114.42 56.9004L115.29 57.1921L133.288 57.8103L163.214 58.0319L164.602 56.9588L163.59 55.699Z" fill="white"/>
<path d="M49.1359 67.1306C49.1359 67.1306 49.4418 66.209 49.8535 65.9058C49.8535 65.9058 50.2652 66.314 50.571 67.1306C50.571 67.1306 51.3945 67.2355 51.912 67.5388C51.912 67.5388 51.6062 68.1571 51.0886 68.5653C51.0886 68.5653 51.1945 68.7753 51.1945 70.0001C51.1945 70.0001 50.4769 69.8951 49.8535 69.4868C49.8535 69.4868 49.23 69.8951 48.5125 70.0001C48.5125 70.0001 48.4066 69.3818 48.6183 68.5653C48.6183 68.5653 47.9008 67.9471 47.7949 67.5388C47.7949 67.5388 48.3125 67.2355 49.1359 67.1306Z" fill="white"/>
<path d="M1.11751 63.7477C1.11751 63.7477 1.3763 62.9895 1.70567 62.7329C1.70567 62.7329 2.0468 63.0712 2.30559 63.7361C2.30559 63.7361 2.98786 63.8177 3.41133 64.0744C3.41133 64.0744 3.15254 64.5759 2.72907 64.9142C2.72907 64.9142 2.81141 65.0775 2.81141 66.0923C2.81141 66.0923 2.22325 66.0107 1.70567 65.6724C1.70567 65.6724 1.19985 66.0107 0.599924 66.0923C0.599924 66.0923 0.517582 65.5908 0.682267 64.9142C0.682267 64.9142 0.0941057 64.4126 0 64.0744C0.0117632 64.086 0.435239 63.8294 1.11751 63.7477Z" fill="white"/>
<path d="M24.9854 55.6757C24.9854 55.6757 25.3971 54.4393 25.95 54.031C25.95 54.031 26.5029 54.5792 26.9264 55.6757C26.9264 55.6757 28.0321 55.8157 28.7261 56.224C28.7261 56.224 28.3144 57.0522 27.6204 57.6004C27.6204 57.6004 27.7615 57.8804 27.7615 59.5251C27.7615 59.5251 26.797 59.3851 25.9618 58.8369C25.9618 58.8369 25.1266 59.3851 24.162 59.5251C24.162 59.5251 24.0208 58.6969 24.3032 57.6004C24.3032 57.6004 23.3386 56.7722 23.1974 56.224C23.1856 56.224 23.8797 55.8157 24.9854 55.6757Z" fill="white"/>
<path d="M278.682 0.0699883L278.999 1.35311L278.74 7.6054L269.683 7.62873L270.189 46.169L269.271 47.4754H263.131L262.39 7.61706H253.12L252.861 0L278.682 0.0699883Z" fill="white"/>
<path d="M249.191 45.9357L248.203 47.3005H241.815L235.416 33.7461L229.782 18.477L229.758 47.2072L223.147 47.2888L222.43 16.2607L222.512 0.349994L229.205 0.116699L234.369 12.0264L243.309 35.2975L242.415 30.7599L240.769 1.3415L241.615 0.303335L247.732 0.349994L249.191 45.9357Z" fill="white"/>
<path d="M213.266 48.2803L211.137 39.4385H200.48L198.997 47.9537H192.986L198.797 9.01687L200.35 1.14318H206.549L209.196 0.956543L213.007 16.1907L216.56 35.0759L218.689 48.2803H213.266ZM209.784 31.8914L205.326 11.7814V16.3306L202.22 31.8914H209.784Z" fill="white"/>
<path d="M118.419 23.2478L118.16 0.583252H142.757L144.498 18.197H137.852L144.627 47.977H137.722L130.159 18.1853H124.865L125.994 46.5423L125.453 47.5804H118.866L118.419 23.2478ZM137.264 12.1663V7.04551H124.606V12.1663H137.264Z" fill="white"/>
<path d="M114.15 44.2444L114.185 47.5688H91.3998L90.5176 0.699951H112.985L113.244 1.46982L113.303 8.34034L98.1401 8.65529L98.0107 20.0401L109.574 19.8301L107.551 27.5171L98.2695 27.5988L98.446 39.5551L114.232 39.4268L114.15 44.2444Z" fill="white"/>
<path d="M84.7644 2.62468L86.0583 18.827H67.7195L67.6254 39.5669L67.8489 47.8955L61.2026 47.8372L60.8145 2.1231L61.2615 0.71167L84.5056 0.968294L84.7644 2.62468ZM79.5415 12.4231L79.2239 7.23225L67.5077 7.26724L67.6606 12.4231H79.5415Z" fill="white"/>
<path d="M55.7568 24.3675L55.8745 46.4722L54.7569 47.6737L31.7363 47.732L32.2304 16.6338L32.148 0.408203L39.4883 0.793139V40.6165H48.7812L48.593 0.933116L55.4275 0.979774L55.7568 24.3675Z" fill="white"/>
<path d="M26.3252 47.3822L1.85774 47.2539L0.951972 43.8011L0.999025 28.5087L8.06872 31.5182L8.30398 40.4183H19.2791L19.2085 29.9784L0.740234 20.7633V0.699951H23.7961L25.7371 1.18987L25.7488 14.7209L19.0909 17.0539L18.9615 8.28202L7.38645 8.1887L7.57466 15.7474L26.2311 25.8608L26.3252 47.3822Z" fill="white"/>
<path d="M187.305 48.467H180.27L180.07 0.758301L187.975 0.769965L188.069 8.24705L187.94 46.729L187.305 48.467Z" fill="white"/>
<path d="M173.236 1.01489L172.624 11.5948L165.754 14.5343V8.13037H156.438L156.203 40.9782L166.072 40.8499V27.9137H161.037L163.272 20.495L172.659 20.3667V46.3907L171.695 47.8954H149.615V1.01489H173.236Z" fill="white"/>
</g>
<defs>
<clipPath id="clip0_566_55">
<rect width="279" height="70" fill="white"/>
</clipPath>
</defs>
</svg>
